<svg viewBox="0 0 24 24" fill="none" xmlns="http://www.w3.org/2000/svg">
<path fill-rule="evenodd" clip-rule="evenodd" d="M24 12C24 18.6274 18.6274 24 12 24C10.2933 24 8.66991 23.6437 7.2 23.0015L15.9032 12L21.6 4.79883C23.107 6.80462 24 9.29802 24 12Z" fill="#485CFA"/>
<path fill-rule="evenodd" clip-rule="evenodd" d="M7.2 23.0015L15.9032 12L0.240043 9.6C0.0826326 10.3755 0 11.1781 0 12C0 16.9208 2.96183 21.1498 7.2 23.0015Z" fill="#F3BA2F"/>
<path d="M21.6 4.79883C19.4107 1.88482 15.9254 0 12 0C6.1945 0 1.35189 4.12262 0.240043 9.6L15.9032 12L21.6 4.79883Z" fill="white"/>
</svg>
