<svg viewBox="0 0 581 584" fill="none" xmlns="http://www.w3.org/2000/svg">
<path d="M199.041 53.4821C200.055 55.7594 201.068 57.9768 202.082 60.2541C204.109 64.7488 206.017 69.3633 207.925 73.858C211.8 82.9672 215.675 92.0765 219.551 101.186C219.968 102.145 221.339 101.365 220.982 100.407C217.225 91.4172 213.41 82.4279 209.594 73.4385C207.626 68.824 205.659 64.2094 203.811 59.535C202.976 57.3775 202.082 55.2201 201.247 53.0626C200.293 50.6055 199.637 48.1484 198.683 45.6913C197.849 43.5339 194.689 44.7325 195.702 46.8899C196.716 49.1073 198.027 51.2048 199.041 53.4821ZM234.456 59.6548C234.575 60.2541 235.47 60.0144 235.35 59.4151C233.979 51.5644 232.548 43.8935 230.342 36.2225C229.984 34.964 227.957 35.4434 228.315 36.7619C230.461 44.3729 232.727 51.924 234.456 59.6548ZM230.104 127.315C230.342 128.094 230.7 128.813 230.938 129.592C231.177 130.371 231.177 131.15 231.356 131.929C232.19 135.645 234.396 139.001 236.125 142.357C237.795 145.653 239.524 149.189 241.849 152.066C242.028 152.305 242.326 152.006 242.207 151.766C240.776 148.35 238.689 145.114 237.199 141.698C235.708 138.282 234.814 134.506 233.025 131.21C232.608 130.491 232.19 130.012 231.892 129.233C231.475 128.274 231.236 127.195 230.938 126.176C230.461 124.618 230.044 122.94 229.388 121.442C227.957 118.385 225.93 115.748 225.274 112.392C225.095 111.374 223.605 111.613 223.545 112.572C223.366 115.988 225.513 118.385 227.242 121.022C228.494 123.12 229.388 125.097 230.104 127.315ZM258.185 18.5434C258.841 23.0381 259.318 27.5328 259.974 32.0275C260.63 36.5222 261.286 40.9569 262.001 45.4516C262.359 47.7289 262.716 50.0662 263.015 52.3435C263.253 54.0814 263.074 56.3587 264.445 57.6172C264.684 57.797 265.042 57.797 265.221 57.5573C266.055 56.0591 265.399 54.3811 265.161 52.703C264.803 50.4257 264.445 48.0885 264.147 45.8112C263.432 41.1966 262.776 36.5821 262.061 31.9676C261.345 27.353 260.511 22.7984 259.795 18.1839C259.08 13.5094 258.901 8.83492 258.245 4.22038C258.006 2.54236 255.383 3.14165 255.622 4.8796C256.337 9.43421 257.47 13.9289 258.185 18.5434ZM373.075 163.931C376.176 158.598 378.501 152.845 381.601 147.451C384.702 142.057 387.802 136.724 390.902 131.39C397.043 120.663 403.303 109.875 408.729 98.7885C409.206 97.7697 407.715 96.8109 407.238 97.8297C401.574 109.036 395.076 119.704 388.637 130.431C385.477 135.765 382.436 141.158 379.634 146.672C376.891 152.066 373.612 157.519 371.704 163.272C371.346 164.171 372.658 164.77 373.075 163.931ZM168.813 71.8804C170.542 74.8169 172.51 77.6935 174.417 80.5102C178.531 86.5031 181.93 92.9754 185.507 99.3279C187.236 102.444 189.025 105.561 190.873 108.617C192.781 111.673 195.166 114.37 196.835 117.546C198.504 120.723 200.174 123.839 201.903 126.955C202.737 128.453 203.572 129.952 204.407 131.45C205.301 133.008 206.434 134.147 207.328 135.705C207.686 136.304 208.64 135.825 208.282 135.166C207.507 133.727 207.209 132.229 206.374 130.851C205.48 129.233 204.586 127.614 203.632 125.996C201.903 123 200.174 120.063 198.326 117.187C196.298 114.011 195.106 110.475 193.317 107.239C191.588 104.122 189.68 101.066 187.832 98.0694C184.076 92.0165 179.962 86.0836 176.564 79.8509C174.835 76.7346 173.165 73.6183 171.198 70.6218C170.244 69.1835 169.35 67.7452 168.336 66.3669C167.561 65.2881 166.905 64.0296 165.593 63.73C165.415 63.6701 165.236 63.7899 165.176 63.9697C164.878 65.2881 165.474 65.9474 166.13 67.146C166.905 68.7041 167.859 70.3222 168.813 71.8804ZM342.728 122.7C343.205 121.142 344.04 119.824 344.457 118.265C344.934 116.468 345.471 114.67 345.948 112.812C346.842 109.456 347.617 106.1 348.392 102.684C349.167 99.1481 350.777 95.852 351.731 92.3761C352.745 88.9002 353.52 85.3644 354.354 81.8885C355.964 74.8768 357.276 67.6853 359.303 60.7935C360.257 57.4374 361.211 54.1413 361.926 50.7254C362.284 49.0474 362.701 47.3094 362.94 45.6314C363.119 44.1931 363.596 42.9945 362.88 41.736C362.821 41.6161 362.582 41.4963 362.403 41.6161C361.27 42.3353 361.211 43.2342 360.853 44.5527C360.257 46.3506 359.84 48.1484 359.363 49.9463C358.528 53.3023 357.872 56.7183 357.276 60.1342C355.964 67.2059 353.818 74.1577 351.91 81.1094C351.016 84.4655 350.062 87.8215 349.287 91.1775C348.392 94.8332 348.154 98.6087 347.081 102.264C346.067 105.561 345.053 108.857 344.1 112.213C343.623 113.891 343.205 115.569 342.728 117.247C342.251 118.985 342.251 120.663 341.774 122.401C341.476 123.06 342.49 123.359 342.728 122.7ZM358.528 188.023C359.899 186.105 360.853 183.828 361.986 181.79C363.178 179.693 364.55 177.775 365.504 175.558C365.742 175.078 365.682 174.659 365.384 174.239C365.265 174.119 365.205 173.94 364.967 173.94C364.848 173.94 364.728 173.94 364.609 173.94C364.252 173.94 363.834 174.119 363.655 174.479C362.582 176.577 361.926 178.794 361.032 180.951C360.078 183.229 358.826 185.506 358.111 187.903C358.111 188.083 358.409 188.203 358.528 188.023ZM352.804 414.016C356.083 420.728 359.303 427.32 363.059 433.792C363.834 435.171 365.981 433.972 365.205 432.594C361.449 426.181 357.514 419.949 353.758 413.476C353.4 412.877 352.506 413.356 352.804 414.016ZM357.455 147.211C356.382 150.867 354.951 154.702 354.533 158.478C354.533 158.778 354.891 158.778 354.951 158.538C356.381 154.942 357.216 151.167 358.588 147.571C359.899 144.215 361.628 140.979 362.821 137.563C363.536 135.525 364.251 133.727 365.265 131.809C365.981 130.371 366.815 128.993 367.352 127.495C368.365 124.498 368.842 121.442 370.571 118.805C371.168 117.966 369.916 117.067 369.2 117.726C366.815 119.824 366.517 122.82 365.981 125.757C365.623 127.674 365.146 129.532 364.311 131.27C363.834 132.229 363.357 133.248 362.94 134.207C362.463 135.285 361.867 135.945 361.27 136.903C359.422 140.02 358.528 143.735 357.455 147.211ZM164.997 444.46C163.984 445.838 162.97 447.216 161.957 448.595C161.241 449.614 160.406 450.333 160.883 451.591C160.943 451.651 161.003 451.771 161.062 451.771C163.089 451.891 164.938 448.055 166.011 446.617C168.038 443.86 170.184 441.164 172.152 438.407C174 435.83 175.61 433.013 177.279 430.376C181.93 423.065 186.997 415.993 191.409 408.502C191.529 408.322 191.29 408.083 191.111 408.263C185.388 414.735 180.976 422.106 176.206 429.238C174.417 431.875 172.51 434.332 170.542 436.849C168.634 439.306 166.845 441.943 164.997 444.46ZM322.934 63.1906C322.874 63.8499 323.948 64.0296 324.067 63.3704C324.484 61.153 325.2 58.9357 325.557 56.6584C325.975 54.2013 326.094 51.6842 326.332 49.2271C326.452 47.9686 324.365 47.6091 324.126 48.8676C323.769 51.1449 323.471 53.4222 323.172 55.6995C322.874 58.1566 323.053 60.7335 322.934 63.1906ZM296.283 151.047C297.058 155.781 297.178 160.635 297.833 165.37C297.893 165.609 298.191 165.55 298.191 165.31C298.608 160.396 297.774 155.362 297.416 150.447C297.297 148.11 297.178 145.773 296.879 143.496C296.641 141.398 296.522 139.061 295.687 137.143C295.449 136.604 294.733 136.963 294.673 137.383C294.375 139.42 294.793 141.698 295.031 143.735C295.389 146.192 295.866 148.59 296.283 151.047ZM332.235 161.414C334.62 154.343 337.005 147.391 338.853 140.14C339.27 138.641 336.945 137.922 336.528 139.42C334.62 146.612 333.07 153.863 331.221 161.055C331.042 161.834 332.056 162.074 332.235 161.414ZM182.764 15.547C185.268 20.0417 186.58 24.9559 188.667 29.6303C189.203 30.769 191.171 29.9899 190.694 28.7913C188.905 23.8771 186.342 19.3225 184.553 14.3484C182.884 9.614 180.618 5.11931 178.293 0.624628C177.577 -0.753741 175.61 0.384912 176.266 1.76328C178.293 6.43775 180.32 11.1122 182.764 15.547ZM93.7498 312.855C97.1482 312.376 100.547 311.956 103.885 311.417C106.986 310.878 110.086 310.039 113.186 309.379C121.593 307.462 130.178 306.143 138.525 303.926C138.704 303.866 138.704 303.566 138.466 303.566C129.88 304.106 121.533 306.143 113.127 307.821C110.026 308.421 106.926 308.84 103.766 309.2C100.666 309.559 97.5656 310.159 94.4653 310.638C92.7959 310.878 91.0669 311.117 89.3975 311.417C88.1454 311.657 87.0723 311.537 86.5357 312.735C86.476 312.795 86.476 312.915 86.5357 312.975C87.9666 314.533 91.9612 313.155 93.7498 312.855ZM155.517 321.006C155.04 321.185 154.742 321.485 154.683 322.025C154.683 322.204 154.623 322.384 154.742 322.564C154.802 322.624 154.921 322.744 154.981 322.804C155.219 323.043 155.637 323.223 155.994 323.103C158.2 322.384 160.228 321.305 162.374 320.406C164.639 319.448 167.144 318.728 169.29 317.53C169.528 317.41 169.35 317.11 169.111 317.17C166.786 317.59 164.52 318.489 162.255 319.148C160.108 319.747 157.723 320.107 155.517 321.006ZM187.057 223.621C185.149 222.243 182.884 221.284 180.856 220.145C178.77 218.946 176.862 217.568 174.656 216.609C174.179 216.369 173.762 216.429 173.344 216.729C173.225 216.849 173.046 216.909 173.046 217.149C173.046 217.268 173.046 217.388 173.046 217.508C173.046 217.868 173.225 218.287 173.583 218.467C175.669 219.546 177.875 220.205 180.022 221.104C182.287 222.063 184.553 223.321 186.938 224.04C187.117 224.04 187.236 223.741 187.057 223.621ZM160.585 250.05C153.55 247.652 146.634 245.255 139.42 243.397C137.929 242.978 137.214 245.315 138.704 245.735C145.859 247.652 153.073 249.211 160.228 251.068C161.003 251.248 161.241 250.229 160.585 250.05ZM125.051 216.07C126.959 216.429 128.807 216.909 130.536 217.748C131.49 218.227 132.504 218.707 133.458 219.126C134.531 219.606 135.187 220.205 136.141 220.804C139.3 222.722 142.997 223.621 146.455 224.7C150.092 225.778 153.908 227.217 157.664 227.636C157.962 227.636 157.962 227.277 157.723 227.217C154.146 225.778 150.39 224.939 146.813 223.561C143.474 222.243 140.254 220.505 136.856 219.306C134.829 218.587 133.04 217.868 131.132 216.849C129.701 216.13 128.33 215.291 126.84 214.751C123.859 213.733 120.818 213.253 118.195 211.515C117.36 210.916 116.466 212.174 117.121 212.894C119.089 215.231 122.13 215.53 125.051 216.07ZM164.461 284.329C159.572 283.91 154.564 284.749 149.675 285.108C147.349 285.228 145.024 285.348 142.759 285.648C140.672 285.887 138.347 286.007 136.439 286.846C135.902 287.086 136.26 287.805 136.677 287.865C138.704 288.165 140.97 287.745 142.997 287.505C145.441 287.206 147.826 286.666 150.271 286.307C154.981 285.528 159.81 285.408 164.52 284.749C164.759 284.629 164.699 284.329 164.461 284.329ZM163.089 208.998C157.783 205.882 152.059 203.545 146.694 200.428C141.328 197.312 136.021 194.196 130.715 191.079C120.043 184.907 109.311 178.614 98.2811 173.161C97.2675 172.681 96.3135 174.179 97.3271 174.659C108.476 180.352 119.089 186.884 129.761 193.357C135.067 196.533 140.433 199.589 145.918 202.406C151.284 205.163 156.71 208.459 162.434 210.377C163.328 210.736 163.924 209.478 163.089 208.998ZM88.2051 291.461C89.9341 291.461 91.6631 291.401 93.4517 291.341C97.3867 291.221 101.262 290.981 105.197 290.682C108.953 290.382 112.769 289.962 116.525 289.843C118.433 289.783 120.281 289.843 122.189 290.022C122.964 290.082 124.037 290.262 124.813 290.082C125.588 289.902 125.945 289.483 126.72 289.123C127.018 289.004 126.899 288.584 126.661 288.464C125.468 288.045 125.468 287.745 124.395 287.685C123.62 287.625 122.726 287.805 121.951 287.925C119.983 288.224 118.075 288.404 116.108 288.524C112.352 288.704 108.536 288.524 104.78 288.524C101.024 288.524 97.2675 288.584 93.4517 288.764C91.7227 288.824 89.9937 288.944 88.2051 289.063C87.6088 289.123 86.7145 288.944 86.1779 289.183C85.5817 289.423 85.4029 289.962 84.6278 290.082C84.27 290.142 84.3297 290.682 84.6874 290.741C85.5817 290.801 85.3432 291.221 85.9395 291.401C86.7145 291.581 87.4896 291.461 88.2051 291.461ZM91.0073 260.357C88.4435 259.938 85.9394 259.339 83.3161 259.039C82.1237 258.919 80.5735 258.44 79.3811 258.679C78.606 258.859 78.1887 259.399 77.4732 259.458C76.877 259.518 76.9963 260.417 77.4732 260.597C78.2483 260.897 78.5464 261.556 79.3811 261.796C80.4543 262.155 81.7063 262.095 82.8391 262.275C85.4625 262.575 88.0262 262.575 90.7092 262.695C95.9558 262.994 101.202 263.713 106.39 264.313C111.457 264.912 116.525 265.451 121.653 266.051C124.216 266.35 126.84 266.65 129.403 266.95C132.325 267.309 135.127 267.369 137.989 268.088C138.704 268.268 139.002 267.249 138.287 267.01C128.33 263.833 117.598 263.534 107.284 262.395C101.858 261.796 96.3732 261.256 91.0073 260.357ZM196 376.14C192.304 379.257 189.382 383.332 186.222 386.988C184.672 388.786 183.003 390.583 181.512 392.501C180.201 394.179 178.65 395.917 177.875 397.835C177.697 398.254 178.293 398.734 178.651 398.434C182.168 395.857 184.613 391.243 187.176 387.707C189.979 383.752 193.377 380.216 196.298 376.32C196.418 376.2 196.12 376.021 196 376.14ZM162.434 120.603C162.97 121.622 163.864 122.461 164.58 123.359C166.249 125.457 168.038 127.255 169.827 129.233C173.404 133.308 176.683 137.623 180.081 141.878C183.361 146.013 186.64 150.148 189.919 154.283C191.469 156.261 193.079 158.238 194.629 160.276C196.298 162.433 198.147 164.351 199.518 166.688C199.876 167.288 200.83 166.808 200.472 166.149C195.762 156.98 188.488 149.189 182.049 141.158C178.531 136.784 174.954 132.409 171.675 127.854C170.244 125.817 168.992 123.719 167.442 121.801C166.607 120.783 165.713 119.164 164.64 118.445C163.984 117.966 163.328 118.086 162.732 117.666C162.195 117.307 161.718 117.966 161.897 118.445C162.314 119.105 162.016 119.824 162.434 120.603ZM131.729 161.714C131.669 161.774 131.55 161.834 131.55 161.894C131.43 163.931 135.246 165.789 136.677 166.868C139.42 168.906 142.103 171.063 144.845 173.041C147.409 174.899 150.211 176.517 152.834 178.195C160.108 182.869 167.144 187.963 174.596 192.398C174.775 192.518 175.014 192.278 174.835 192.098C168.396 186.345 161.062 181.91 153.967 177.116C151.344 175.318 148.9 173.4 146.395 171.423C143.951 169.505 141.328 167.707 138.824 165.849C137.452 164.83 136.081 163.812 134.71 162.793C133.636 162.074 132.981 161.295 131.729 161.714ZM148.065 144.814C147.469 144.574 146.932 144.814 146.336 144.335C146.038 144.095 145.68 144.574 145.918 144.874C146.455 145.533 146.038 145.713 146.336 146.252C146.694 146.912 147.29 147.331 147.826 147.87C149.078 149.069 150.33 150.328 151.582 151.526C154.444 154.223 157.366 156.86 160.347 159.437C163.209 161.954 166.19 164.291 168.932 166.868C170.363 168.186 171.556 169.565 172.808 171.003C173.344 171.602 173.94 172.441 174.596 172.861C175.312 173.28 175.789 173.22 176.623 173.58C176.921 173.7 177.16 173.34 177.041 173.041C176.445 171.902 176.743 171.722 175.968 170.883C175.431 170.284 174.715 169.805 174.06 169.325C172.45 168.127 170.959 166.928 169.528 165.609C166.726 163.033 164.222 160.216 161.539 157.579C158.856 154.882 156.173 152.245 153.371 149.728C152.059 148.53 150.807 147.391 149.496 146.192C149.138 145.773 148.601 145.054 148.065 144.814ZM147.409 101.785C148.959 103.703 150.807 105.381 152.477 107.179C152.894 107.658 153.788 107.059 153.371 106.519C152.059 104.602 150.986 102.624 149.675 100.706C148.244 98.6687 146.574 96.8109 145.024 94.8931C144.249 93.9343 142.52 95.1928 143.235 96.2116C144.607 98.0694 145.918 99.9871 147.409 101.785ZM206.792 197.012C203.691 193.297 199.637 190.36 196 187.184C194.212 185.626 192.423 183.948 190.515 182.45C188.846 181.131 187.117 179.573 185.209 178.794C184.791 178.614 184.315 179.213 184.613 179.573C187.176 183.109 191.767 185.566 195.285 188.143C199.22 190.96 202.737 194.375 206.613 197.312C206.732 197.432 206.911 197.132 206.792 197.012ZM430.014 243.517C433.412 242.079 436.632 239.982 440.03 238.483C443.429 236.985 447.185 236.086 450.464 234.288C451.179 233.869 451.656 233.449 452.431 233.15C453.385 232.73 454.458 232.49 455.472 232.191C457.022 231.711 458.692 231.292 460.182 230.633C463.223 229.194 465.846 227.157 469.185 226.497C470.199 226.318 469.96 224.819 469.006 224.76C465.608 224.58 463.223 226.737 460.599 228.475C458.692 229.734 456.664 230.633 454.518 231.412C453.743 231.651 453.028 232.011 452.252 232.251C451.477 232.49 450.702 232.49 449.927 232.67C446.231 233.509 442.892 235.727 439.553 237.465C436.274 239.143 432.756 240.88 429.895 243.218C429.537 243.338 429.775 243.577 430.014 243.517ZM416.539 299.671C421.428 300.09 426.437 299.251 431.325 298.892C433.651 298.772 435.976 298.652 438.241 298.352C440.328 298.113 442.653 297.993 444.561 297.154C445.098 296.914 444.74 296.195 444.323 296.135C442.296 295.835 440.03 296.255 438.003 296.495C435.559 296.794 433.174 297.334 430.729 297.693C426.019 298.472 421.19 298.592 416.48 299.251C416.241 299.371 416.301 299.671 416.539 299.671ZM411.889 229.374C418.566 226.078 425.125 222.842 431.564 219.066C432.935 218.287 431.743 216.13 430.371 216.909C423.992 220.684 417.791 224.64 411.352 228.415C410.756 228.775 411.233 229.674 411.889 229.374ZM411.77 266.83C414.095 266.41 416.36 265.511 418.626 264.852C420.951 264.193 423.277 263.833 425.483 262.994C425.96 262.815 426.258 262.515 426.317 261.976C426.317 261.796 426.377 261.616 426.258 261.436C426.198 261.376 426.079 261.256 426.019 261.196C425.781 260.957 425.363 260.777 425.006 260.897C422.8 261.616 420.772 262.695 418.626 263.594C416.36 264.552 413.856 265.272 411.71 266.47C411.412 266.59 411.531 266.89 411.77 266.83ZM420.415 333.95C427.45 336.348 434.366 338.745 441.58 340.603C443.071 341.022 443.786 338.685 442.296 338.265C435.141 336.348 427.927 334.789 420.772 332.932C419.997 332.752 419.759 333.771 420.415 333.95ZM487.25 271.145C483.852 271.624 480.453 272.044 477.115 272.583C474.014 273.122 470.914 273.961 467.814 274.621C459.407 276.538 450.822 277.857 442.475 280.074C442.296 280.134 442.296 280.434 442.534 280.434C451.12 279.894 459.467 277.857 467.873 276.179C470.974 275.579 474.074 275.16 477.234 274.8C480.334 274.441 483.434 273.841 486.535 273.362C488.204 273.122 489.933 272.883 491.603 272.583C492.855 272.343 493.928 272.463 494.464 271.265C494.524 271.205 494.524 271.085 494.464 271.025C493.033 269.467 489.039 270.845 487.25 271.145ZM492.795 292.539C491.066 292.539 489.337 292.599 487.548 292.659C483.613 292.779 479.738 293.019 475.803 293.318C472.047 293.618 468.231 294.038 464.475 294.157C462.567 294.217 460.719 294.157 458.811 293.978C458.036 293.918 456.963 293.738 456.187 293.918C455.412 294.098 455.055 294.517 454.28 294.877C453.982 294.996 454.101 295.416 454.339 295.536C455.532 295.955 455.532 296.255 456.605 296.315C457.38 296.375 458.274 296.195 459.049 296.075C461.017 295.776 462.925 295.596 464.892 295.476C468.648 295.296 472.464 295.476 476.22 295.476C479.976 295.476 483.733 295.416 487.548 295.236C489.277 295.176 491.006 295.056 492.795 294.937C493.391 294.877 494.285 295.056 494.822 294.817C495.418 294.577 495.597 294.038 496.372 293.918C496.73 293.858 496.67 293.318 496.313 293.259C495.418 293.199 495.657 292.779 495.061 292.599C494.285 292.42 493.51 292.539 492.795 292.539ZM552.357 292.599C554.503 292.599 556.59 292.719 558.676 292.839C560.525 292.899 562.671 293.378 564.281 292.36C564.817 292 565.116 291.101 564.519 290.622C563.088 289.363 561.359 289.483 559.571 289.483C557.305 289.483 555.04 289.783 552.774 290.022C548.541 290.442 544.308 290.981 540.075 291.341C535.782 291.7 531.489 292 527.137 292.12C524.812 292.18 522.546 292.24 520.221 292.24C518.372 292.24 516.286 291.88 514.676 292.899C514.259 293.139 514.259 293.738 514.676 294.038C516.286 295.056 518.372 294.637 520.161 294.637C522.188 294.577 524.215 294.517 526.183 294.397C530.654 294.157 535.126 293.858 539.538 293.498C543.95 293.079 548.123 292.659 552.357 292.599ZM528.925 264.373C527.196 264.612 524.931 264.433 523.679 265.811C523.5 266.051 523.5 266.41 523.738 266.59C525.229 267.429 526.898 266.77 528.568 266.53C530.833 266.171 533.159 265.811 535.424 265.511C540.015 264.792 544.606 264.133 549.197 263.414C553.787 262.695 558.319 261.856 562.91 261.137C567.56 260.417 572.21 260.238 576.801 259.578C578.471 259.339 577.874 256.702 576.145 256.941C571.555 257.721 567.083 258.859 562.492 259.518C558.021 260.178 553.549 260.657 549.077 261.316C544.606 261.976 540.194 262.635 535.722 263.354C533.516 263.654 531.251 264.013 528.925 264.373ZM417.911 375.002C423.217 378.118 428.941 380.455 434.307 383.572C439.672 386.688 444.979 389.804 450.285 392.921C460.957 399.093 471.689 405.386 482.719 410.839C483.733 411.319 484.686 409.821 483.673 409.341C472.524 403.648 461.911 397.116 451.239 390.643C445.933 387.467 440.567 384.411 435.082 381.594C429.716 378.837 424.29 375.541 418.566 373.624C417.672 373.264 417.076 374.582 417.911 375.002ZM459.884 168.306C460.898 167.467 462.507 166.568 463.223 165.49C463.7 164.83 463.581 164.171 463.998 163.572C464.356 163.033 463.7 162.553 463.223 162.733C462.448 163.092 461.792 162.793 461.017 163.212C460.003 163.752 459.169 164.651 458.274 165.37C456.187 167.048 454.399 168.846 452.431 170.644C448.377 174.239 444.084 177.535 439.851 180.951C435.737 184.247 431.624 187.544 427.51 190.84C425.542 192.398 423.575 194.016 421.548 195.574C419.401 197.252 417.493 199.11 415.168 200.488C414.572 200.848 415.049 201.807 415.705 201.447C424.827 196.713 432.577 189.401 440.567 182.929C444.919 179.393 449.271 175.797 453.803 172.501C455.83 171.123 457.917 169.864 459.884 168.306ZM376.116 107.119C379.813 97.9495 383.509 88.7204 387.206 79.5513C388.994 75.1165 390.783 70.6218 392.631 66.1871C393.585 63.9098 394.599 61.6325 395.553 59.3552C396.626 56.8981 397.938 54.6208 399.011 52.2236C399.845 50.3059 396.626 49.2871 395.91 51.2647C395.076 53.602 394.539 55.9991 393.645 58.2764C392.75 60.6137 391.916 62.891 391.021 65.2282C389.292 69.8428 387.385 74.4573 385.596 79.0119C381.959 88.241 378.263 97.4102 374.566 106.579C374.208 107.598 375.758 108.018 376.116 107.119ZM525.587 324.841C523.142 324.542 520.638 324.721 518.194 324.601C517.538 324.542 517.359 325.62 518.015 325.74C520.221 326.16 522.427 326.879 524.692 327.238C527.137 327.658 529.641 327.778 532.085 328.017C533.337 328.137 533.695 326.04 532.443 325.8C530.118 325.44 527.852 325.081 525.587 324.841ZM480.334 220.684C479.38 221.104 480.155 222.482 481.109 222.123C490.052 218.347 498.996 214.512 507.939 210.676C512.53 208.699 517.12 206.721 521.771 204.863C523.917 204.024 526.064 203.125 528.21 202.286C530.654 201.327 533.099 200.668 535.543 199.709C537.69 198.87 536.497 195.694 534.351 196.713C532.085 197.732 530.058 199.05 527.793 200.069C525.527 201.088 523.321 202.106 521.055 203.125C516.584 205.163 511.993 207.08 507.521 208.998C498.459 212.954 489.397 216.789 480.334 220.684ZM521.89 236.566C529.701 235.187 537.332 233.749 544.964 231.532C546.216 231.172 545.739 229.134 544.427 229.494C536.855 231.591 529.283 233.929 521.592 235.607C521.055 235.786 521.294 236.685 521.89 236.566ZM552.357 191.679C557.246 189.881 561.777 187.304 566.725 185.506C571.435 183.828 575.967 181.491 580.379 179.213C581.75 178.494 580.617 176.517 579.246 177.176C574.655 179.273 569.945 181.251 565.533 183.708C561.061 186.225 556.172 187.544 551.522 189.641C550.389 190.12 551.164 192.098 552.357 191.679ZM374.208 387.048C377.309 390.763 381.363 393.7 385 396.876C386.788 398.434 388.577 400.112 390.485 401.61C392.154 402.929 393.883 404.487 395.791 405.266C396.209 405.446 396.685 404.847 396.387 404.487C393.824 400.951 389.233 398.494 385.715 395.917C381.78 393.1 378.263 389.684 374.387 386.748C374.268 386.568 374.089 386.868 374.208 387.048ZM389.889 175.797C395.612 169.325 400.024 161.954 404.794 154.822C406.583 152.185 408.491 149.728 410.458 147.211C412.366 144.754 414.155 142.117 416.003 139.6C417.016 138.222 418.03 136.844 419.043 135.465C419.759 134.446 420.594 133.727 420.117 132.469C420.057 132.409 419.997 132.289 419.938 132.289C417.911 132.169 416.062 136.005 414.989 137.443C412.962 140.2 410.816 142.896 408.848 145.653C407 148.23 405.39 151.047 403.721 153.684C399.13 160.995 394.003 168.067 389.591 175.558C389.471 175.738 389.71 175.917 389.889 175.797ZM415.049 169.864C413.737 171.303 412.366 172.501 410.935 173.76C410.339 174.299 409.504 174.899 409.087 175.558C408.669 176.277 408.729 176.756 408.371 177.595C408.252 177.895 408.61 178.135 408.908 178.015C410.041 177.416 410.22 177.715 411.054 176.936C411.65 176.397 412.127 175.678 412.604 175.018C413.797 173.4 414.989 171.902 416.301 170.464C418.865 167.647 421.667 165.13 424.29 162.433C426.973 159.736 429.596 157.04 432.101 154.223C433.293 152.905 434.426 151.646 435.618 150.328C436.035 149.908 436.751 149.309 436.989 148.769C437.228 148.17 436.989 147.631 437.466 147.031C437.705 146.732 437.228 146.372 436.93 146.612C436.274 147.151 436.095 146.732 435.559 147.031C434.903 147.391 434.485 147.99 433.949 148.53C432.756 149.788 431.504 151.047 430.312 152.305C427.629 155.182 425.006 158.118 422.442 161.115C419.938 164.111 417.613 167.048 415.049 169.864ZM385.059 207.86C388.756 204.743 391.677 200.668 394.837 197.012C396.387 195.214 398.057 193.417 399.547 191.499C400.859 189.821 402.409 188.083 403.184 186.165C403.363 185.746 402.767 185.266 402.409 185.566C398.891 188.143 396.447 192.757 393.883 196.293C391.081 200.249 387.683 203.784 384.761 207.68C384.582 207.8 384.88 207.979 385.059 207.86ZM456.009 367.93C454.101 367.571 452.252 367.091 450.523 366.252C449.57 365.773 448.556 365.293 447.602 364.874C446.529 364.394 445.873 363.795 444.919 363.196C441.759 361.278 438.063 360.379 434.605 359.3C430.968 358.222 427.152 356.783 423.396 356.364C423.098 356.364 423.098 356.723 423.336 356.783C426.913 358.222 430.67 359.061 434.247 360.439C437.586 361.758 440.805 363.495 444.204 364.694C446.231 365.413 448.019 366.132 449.927 367.151C451.358 367.87 452.729 368.709 454.22 369.249C457.201 370.267 460.242 370.747 462.865 372.485C463.7 373.084 464.594 371.826 463.938 371.106C461.911 368.769 458.87 368.47 456.009 367.93ZM406.344 367.451C406.821 367.69 407.238 367.631 407.656 367.331C407.775 367.211 407.954 367.151 407.954 366.911C407.954 366.792 407.954 366.672 407.954 366.552C407.954 366.192 407.775 365.773 407.417 365.593C405.331 364.514 403.125 363.855 400.978 362.956C398.713 361.997 396.447 360.739 394.062 360.02C393.824 359.96 393.704 360.259 393.883 360.379C395.791 361.758 398.057 362.716 400.084 363.855C402.23 365.054 404.138 366.492 406.344 367.451ZM415.108 88.3609C419.64 81.8286 424.052 75.4162 427.867 68.4045C428.523 67.2658 426.735 66.1871 426.079 67.3257C422.203 74.2176 418.507 81.2293 414.274 87.8814C413.976 88.3609 414.751 88.8403 415.108 88.3609ZM405.092 34.964C407.298 30.2296 408.669 25.1356 410.935 20.4012C413.081 15.8466 414.631 11.0523 416.182 6.19804C416.659 4.75974 414.453 4.10052 413.916 5.53882C412.127 10.2732 410.22 15.0076 408.848 19.9218C407.417 24.836 404.913 29.2707 403.125 34.0651C402.588 35.2637 404.555 36.1626 405.092 34.964ZM437.526 108.197C439.195 107.718 439.851 106.1 440.865 104.722C442.236 102.864 443.607 100.946 444.979 99.0882C447.721 95.3126 450.523 91.597 453.266 87.8215C456.009 84.046 458.632 80.2105 461.375 76.435C464.177 72.6594 467.277 69.1835 470.079 65.4679C471.093 64.0896 468.827 62.6513 467.814 64.0896C465.131 67.8651 462.746 71.8804 460.003 75.596C457.32 79.2516 454.518 82.7275 451.835 86.3832C449.152 90.0389 446.469 93.6346 443.846 97.2903C442.475 99.1481 441.103 101.066 439.732 102.924C438.659 104.362 436.989 105.8 436.989 107.658C436.989 108.018 437.228 108.257 437.526 108.197ZM472.941 191.858C469.9 193.776 467.217 196.173 464.057 197.851C460.898 199.529 457.797 201.207 454.697 202.945C453.206 203.784 451.716 204.623 450.225 205.462C448.675 206.361 447.542 207.5 445.992 208.399C445.396 208.758 445.873 209.717 446.529 209.358C447.96 208.579 449.45 208.279 450.822 207.44C452.431 206.541 454.041 205.642 455.651 204.683C458.632 202.945 461.553 201.207 464.415 199.35C467.575 197.312 471.093 196.113 474.312 194.316C477.413 192.578 480.453 190.66 483.434 188.802C489.456 185.027 495.359 180.891 501.559 177.475C504.66 175.738 507.76 174.059 510.741 172.082C512.172 171.123 513.603 170.224 514.974 169.205C516.047 168.426 517.299 167.767 517.597 166.449C517.657 166.269 517.538 166.089 517.359 166.029C516.047 165.729 515.391 166.329 514.199 166.988C512.589 167.827 510.979 168.786 509.37 169.745C506.448 171.483 503.586 173.46 500.784 175.378C494.822 179.513 488.383 182.929 482.063 186.525C479.082 188.203 475.982 189.941 472.941 191.858ZM489.993 323.643C492.556 324.062 495.061 324.661 497.684 324.961C498.876 325.081 500.426 325.56 501.619 325.321C502.394 325.141 502.811 324.601 503.527 324.542C504.123 324.482 504.004 323.583 503.527 323.403C502.752 323.103 502.454 322.444 501.619 322.204C500.546 321.845 499.294 321.905 498.161 321.725C495.538 321.425 492.974 321.425 490.291 321.305C485.044 321.006 479.798 320.287 474.61 319.687C469.543 319.088 464.475 318.549 459.347 317.949C456.784 317.65 454.16 317.35 451.597 317.05C448.675 316.691 445.873 316.631 443.011 315.912C442.296 315.732 441.998 316.751 442.713 316.99C452.67 320.167 463.402 320.466 473.716 321.605C479.142 322.204 484.627 322.744 489.993 323.643ZM509.549 237.644C497.684 241.54 485.521 244.416 473.418 247.473C467.456 248.971 461.494 250.649 455.591 252.507C449.868 254.365 443.727 255.923 438.361 258.619C437.526 259.039 438.063 260.357 438.957 260.118C444.859 258.5 450.583 256.102 456.545 254.544C462.507 252.926 468.469 251.368 474.432 249.75C486.356 246.514 498.28 243.338 509.966 239.322C511.099 239.023 510.681 237.285 509.549 237.644ZM474.372 153.264C473.895 153.684 474.491 154.583 475.028 154.163C476.936 152.845 478.903 151.766 480.811 150.447C482.838 149.009 484.686 147.331 486.594 145.773C487.548 144.994 486.296 143.256 485.283 143.975C483.434 145.353 481.527 146.672 479.798 148.17C477.89 149.728 476.22 151.586 474.372 153.264ZM458.274 123.479C456.664 125.217 454.995 126.895 453.326 128.633C452.014 129.952 450.106 131.27 449.689 133.188C449.57 133.667 449.927 134.087 450.464 133.967C452.252 133.607 453.385 131.869 454.637 130.611C456.307 128.873 457.857 127.135 459.467 125.397C462.507 121.981 465.488 118.565 468.41 115.029C471.033 111.853 473.657 108.737 476.578 105.74C478.128 104.182 479.798 102.804 481.348 101.306C482.6 100.107 484.269 99.1481 484.329 97.2903C484.388 96.691 483.852 96.3314 483.315 96.2715C481.586 96.0917 480.394 97.53 479.261 98.6687C477.711 100.227 476.339 101.965 474.968 103.643C472.226 106.939 469.662 110.295 466.919 113.591C464.177 116.947 461.315 120.303 458.274 123.479ZM5.51036 168.007C10.2204 169.805 14.9305 171.722 19.8195 173.101C24.7084 174.539 29.1204 177.056 33.8901 178.854C35.0825 179.273 35.9172 177.356 34.7844 176.816C30.0743 174.599 25.0065 173.22 20.2964 170.943C15.7652 168.786 10.9955 167.228 6.1662 165.669C4.73529 165.25 4.13907 167.467 5.51036 168.007ZM323.292 83.7463C323.411 82.5477 323.888 80.9896 323.649 79.791C323.471 79.0119 322.934 78.5924 322.874 77.8733C322.815 77.274 321.92 77.3938 321.742 77.8733C321.443 78.6523 320.788 78.952 320.549 79.791C320.191 80.8697 320.251 82.1282 320.072 83.2669C319.774 85.9038 319.774 88.4807 319.655 91.1775C319.357 96.4513 318.641 101.725 318.045 106.939C317.449 112.033 316.912 117.127 316.316 122.281C316.018 124.858 315.72 127.495 315.422 130.072C315.064 133.008 315.004 135.825 314.289 138.701C314.11 139.42 315.124 139.72 315.362 139.001C318.522 128.993 318.82 118.206 319.953 107.838C320.549 102.384 321.026 96.9307 321.98 91.5371C322.397 88.9002 322.994 86.3832 323.292 83.7463ZM265.101 170.284C265.221 170.524 265.519 170.344 265.459 170.104C265.042 167.767 264.147 165.49 263.492 163.212C262.836 160.875 262.478 158.538 261.643 156.32C261.464 155.841 261.166 155.541 260.63 155.481C260.451 155.481 260.272 155.422 260.093 155.541C260.034 155.601 259.914 155.721 259.855 155.781C259.616 156.021 259.437 156.44 259.557 156.8C260.272 159.017 261.345 161.055 262.24 163.212C263.193 165.609 263.909 168.067 265.101 170.284ZM292.467 555.688C292.05 551.433 291.514 547.178 291.156 542.923C290.798 538.608 290.5 534.293 290.381 529.919C290.321 527.581 290.261 525.304 290.261 522.967C290.261 521.109 290.619 519.012 289.606 517.393C289.367 516.974 288.771 516.974 288.473 517.393C287.459 519.012 287.877 521.109 287.877 522.907C287.936 524.945 287.996 526.982 288.115 528.96C288.354 533.454 288.652 537.949 289.009 542.384C289.367 546.639 289.785 550.834 289.844 555.149C289.844 557.306 289.725 559.404 289.606 561.501C289.546 563.359 289.069 565.517 290.083 567.135C290.44 567.674 291.335 567.974 291.812 567.374C293.064 565.936 292.944 564.198 292.944 562.4C293.004 560.243 292.706 557.965 292.467 555.688ZM309.817 479.578C309.281 476.462 308.446 473.346 307.79 470.229C305.882 461.779 304.571 453.149 302.365 444.759C302.305 444.58 302.007 444.58 302.007 444.819C302.543 453.449 304.571 461.839 306.24 470.289C306.836 473.405 307.254 476.522 307.611 479.698C307.969 482.814 308.565 485.931 309.042 489.047C309.281 490.725 309.519 492.463 309.817 494.141C310.056 495.399 309.937 496.478 311.129 497.018C311.189 497.077 311.308 497.077 311.367 497.018C312.918 495.639 311.487 491.624 311.248 489.826C310.771 486.35 310.413 482.934 309.817 479.578ZM334.799 475.922C333.308 469.93 331.639 463.937 329.79 458.004C327.942 452.25 326.392 446.078 323.709 440.684C323.292 439.845 321.98 440.385 322.219 441.283C323.828 447.216 326.213 452.97 327.763 458.963C329.373 464.955 330.923 470.948 332.533 476.941C335.753 488.927 338.912 500.913 342.907 512.659C343.265 513.738 344.994 513.318 344.636 512.24C340.701 500.254 337.839 488.088 334.799 475.922ZM322.815 565.457C322.159 560.962 321.682 556.467 321.026 551.973C320.37 547.478 319.714 543.043 318.999 538.548C318.641 536.271 318.284 533.934 317.985 531.657C317.747 529.919 317.926 527.641 316.555 526.383C316.316 526.203 315.958 526.203 315.779 526.443C314.945 527.941 315.601 529.619 315.839 531.297C316.197 533.574 316.555 535.912 316.853 538.189C317.568 542.803 318.224 547.418 318.939 552.032C319.655 556.647 320.49 561.202 321.205 565.816C321.92 570.491 322.099 575.165 322.755 579.78C322.994 581.458 325.617 580.858 325.378 579.12C324.663 574.566 323.53 570.071 322.815 565.457ZM319.357 427.68C319.536 428.159 319.834 428.459 320.37 428.519C320.549 428.519 320.728 428.579 320.907 428.459C320.966 428.399 321.086 428.279 321.145 428.219C321.384 427.979 321.563 427.56 321.443 427.2C320.728 424.983 319.655 422.945 318.76 420.788C317.807 418.51 317.091 415.993 315.899 413.836C315.779 413.596 315.481 413.776 315.541 414.016C315.958 416.353 316.853 418.63 317.508 420.908C318.105 423.065 318.462 425.462 319.357 427.68ZM290.738 60.9733C290.738 62.8311 290.381 64.9286 291.394 66.5467C291.633 66.9662 292.229 66.9662 292.527 66.5467C293.541 64.9286 293.123 62.8311 293.123 61.0332C293.064 58.9956 293.004 56.958 292.885 54.9803C292.646 50.4857 292.348 45.991 291.991 41.5562C291.633 37.3013 291.215 33.1062 291.156 28.7913C291.156 26.6339 291.275 24.5363 291.394 22.4388C291.454 20.581 291.931 18.4236 290.917 16.8055C290.56 16.2661 289.665 15.9665 289.188 16.5658C287.936 18.0041 288.056 19.742 288.056 21.5399C288.056 23.8172 288.354 26.0945 288.592 28.3718C289.009 32.6268 289.546 36.8817 289.904 41.1367C290.262 45.4516 290.56 49.7665 290.679 54.1413C290.679 56.3587 290.679 58.6959 290.738 60.9733ZM273.389 104.302C273.031 101.186 272.435 98.0694 271.958 94.9531C271.719 93.275 271.481 91.5371 271.183 89.8591C270.944 88.6006 271.063 87.5219 269.871 86.9825C269.811 86.9226 269.692 86.9226 269.633 86.9825C268.082 88.3609 269.513 92.3761 269.752 94.174C270.229 97.59 270.646 101.006 271.183 104.362C271.719 107.478 272.554 110.595 273.21 113.711C275.118 122.161 276.429 130.791 278.635 139.181C278.695 139.361 278.993 139.361 278.993 139.121C278.456 130.491 276.429 122.101 274.76 113.651C274.164 110.595 273.806 107.478 273.389 104.302ZM265.638 444.999C262.478 455.007 262.18 465.794 261.047 476.162C260.451 481.616 259.974 487.069 259.02 492.463C258.603 495.04 258.006 497.557 257.708 500.194C257.589 501.392 257.112 502.951 257.351 504.149C257.529 504.928 258.066 505.348 258.126 506.067C258.185 506.666 259.08 506.546 259.258 506.067C259.557 505.288 260.212 504.988 260.451 504.149C260.809 503.07 260.749 501.812 260.928 500.673C261.226 498.036 261.226 495.459 261.345 492.763C261.643 487.489 262.359 482.215 262.955 477.001C263.551 471.907 264.088 466.813 264.684 461.659C264.982 459.082 265.28 456.446 265.578 453.869C265.936 450.932 265.996 448.115 266.711 445.239C266.89 444.64 265.876 444.34 265.638 444.999ZM258.066 520.809C258.126 520.15 257.052 519.97 256.933 520.63C256.516 522.847 255.8 525.064 255.443 527.342C255.025 529.799 254.906 532.316 254.668 534.773C254.548 536.031 256.635 536.391 256.874 535.132C257.231 532.855 257.529 530.578 257.828 528.301C258.126 525.843 257.947 523.266 258.066 520.809ZM294.018 127.315C294.435 126.116 294.733 126.116 294.793 125.037C294.852 124.258 294.673 123.359 294.554 122.58C294.256 120.603 294.077 118.685 293.958 116.707C293.779 112.932 293.958 109.096 293.958 105.321C293.958 101.545 293.898 97.7697 293.72 93.9343C293.66 92.1963 293.541 90.4584 293.421 88.6605C293.362 88.0612 293.541 87.1623 293.302 86.6229C293.064 86.0236 292.527 85.8438 292.408 85.0648C292.348 84.7052 291.812 84.7651 291.752 85.1247C291.692 86.0236 291.275 85.7839 291.096 86.3832C290.917 87.1024 290.977 87.8814 291.037 88.6006C291.037 90.3385 291.096 92.0765 291.156 93.8743C291.275 97.8297 291.514 101.725 291.812 105.68C292.11 109.456 292.527 113.291 292.646 117.067C292.706 118.985 292.646 120.842 292.467 122.76C292.408 123.539 292.229 124.618 292.408 125.397C292.587 126.176 293.004 126.536 293.362 127.315C293.481 127.674 293.898 127.555 294.018 127.315ZM346.544 524.345C346.425 523.746 345.53 523.986 345.65 524.585C347.021 532.436 348.452 540.107 350.658 547.778C351.016 549.036 353.043 548.557 352.685 547.238C350.539 539.627 348.273 532.076 346.544 524.345ZM284.717 432.953C283.942 428.219 283.822 423.365 283.167 418.63C283.167 418.391 282.809 418.45 282.809 418.69C282.391 423.604 283.226 428.638 283.584 433.553C283.703 435.89 283.822 438.227 284.121 440.504C284.359 442.602 284.478 444.939 285.313 446.857C285.551 447.396 286.267 447.037 286.327 446.617C286.625 444.58 286.207 442.302 285.969 440.265C285.611 437.808 285.134 435.41 284.717 432.953ZM289.188 498.815C289.248 497.916 289.665 498.156 289.844 497.557C290.023 496.838 289.963 496.059 289.904 495.34C289.904 493.602 289.844 491.864 289.785 490.066C289.665 486.11 289.427 482.215 289.129 478.26C288.831 474.484 288.413 470.649 288.294 466.873C288.234 464.955 288.294 463.098 288.473 461.18C288.532 460.401 288.711 459.322 288.532 458.543C288.354 457.764 287.936 457.404 287.579 456.625C287.459 456.326 287.042 456.446 286.923 456.685C286.505 457.884 286.207 457.884 286.148 458.963C286.088 459.742 286.267 460.641 286.386 461.42C286.684 463.397 286.863 465.315 286.982 467.293C287.161 471.068 286.982 474.904 286.982 478.679C286.982 482.455 287.042 486.23 287.221 490.066C287.28 491.804 287.4 493.542 287.519 495.34C287.579 495.939 287.4 496.838 287.638 497.377C287.877 497.976 288.413 498.156 288.532 498.935C288.592 499.295 289.188 499.175 289.188 498.815ZM512.947 430.077C514.08 430.736 515.153 428.938 514.02 428.279C507.164 424.383 500.188 420.668 493.57 416.413C493.033 416.053 492.556 416.892 493.093 417.252C499.592 421.807 506.031 426.241 512.947 430.077ZM517.18 470.229C513.424 467.532 509.429 465.135 505.733 462.379C502.096 459.682 498.638 456.865 495.001 454.168C491.364 451.471 487.787 448.775 484.15 446.138C482.302 444.759 480.394 443.381 478.545 442.003C477.115 440.924 475.684 439.246 473.835 439.246C473.537 439.246 473.299 439.546 473.358 439.845C473.835 441.523 475.445 442.182 476.816 443.201C478.665 444.58 480.573 445.958 482.421 447.336C486.177 450.093 489.874 452.91 493.63 455.666C497.386 458.423 501.202 461.06 504.958 463.817C508.714 466.633 512.172 469.75 515.868 472.566C517.18 473.585 518.611 471.248 517.18 470.229ZM482.898 481.855C481.348 480.297 479.619 478.919 477.949 477.541C474.67 474.784 471.331 472.207 468.052 469.45C464.654 466.633 461.315 463.697 458.155 460.641C456.426 459.022 454.757 457.344 453.028 455.666C451.716 454.348 450.404 452.43 448.496 452.011C448.019 451.891 447.602 452.25 447.721 452.79C448.079 454.588 449.808 455.726 451.06 456.985C452.789 458.663 454.518 460.221 456.247 461.839C459.646 464.896 463.044 467.892 466.562 470.829C469.722 473.465 472.822 476.102 475.803 479.039C477.353 480.597 478.724 482.275 480.215 483.833C481.407 485.092 482.361 486.77 484.209 486.83C484.806 486.89 485.163 486.35 485.223 485.811C485.462 484.193 484.031 482.994 482.898 481.855ZM449.271 422.286C449.331 422.226 449.45 422.166 449.45 422.106C449.57 420.069 445.754 418.211 444.323 417.132C441.58 415.094 438.897 412.937 436.155 410.959C433.591 409.102 430.789 407.483 428.165 405.805C420.892 401.191 413.856 396.037 406.404 391.602C406.225 391.482 405.986 391.722 406.165 391.902C412.604 397.655 419.938 402.09 427.033 406.884C429.656 408.682 432.101 410.6 434.605 412.577C437.049 414.495 439.672 416.293 442.176 418.151C443.548 419.17 444.919 420.188 446.29 421.207C447.364 421.926 448.019 422.705 449.271 422.286ZM529.999 397.955C527.673 397.116 525.289 396.576 523.023 395.677C520.698 394.778 518.432 393.939 516.107 393.041C511.516 391.303 506.925 389.385 502.394 387.587C493.212 383.931 484.09 380.216 474.968 376.5C474.014 376.141 473.537 377.639 474.491 378.058C483.613 381.774 492.795 385.489 501.917 389.205C506.329 391.003 510.801 392.801 515.213 394.659C517.478 395.617 519.744 396.636 522.009 397.595C524.454 398.674 526.719 399.992 529.104 401.071C530.953 401.91 531.966 398.674 529.999 397.955ZM575.49 415.993C570.78 414.195 566.069 412.278 561.181 410.899C556.292 409.461 551.88 406.944 547.11 405.146C545.917 404.727 545.083 406.644 546.216 407.184C550.926 409.401 555.994 410.78 560.704 413.057C565.235 415.214 570.004 416.772 574.834 418.331C576.265 418.75 576.861 416.533 575.49 415.993ZM536.736 362.597C534.947 361.997 533.159 361.578 531.37 361.098C528.031 360.259 524.633 359.6 521.234 359.001C514.199 357.682 507.283 355.525 500.367 353.607C497.028 352.708 493.689 351.749 490.35 350.97C486.714 350.071 482.957 349.832 479.321 348.753C476.041 347.734 472.762 346.715 469.423 345.756C467.754 345.277 466.085 344.857 464.415 344.378C462.686 343.899 461.017 343.899 459.288 343.419C458.572 343.239 458.274 344.258 458.99 344.498C460.54 344.977 461.852 345.816 463.402 346.236C465.19 346.715 466.979 347.255 468.827 347.734C472.166 348.633 475.505 349.412 478.903 350.191C482.421 350.97 485.7 352.588 489.158 353.547C492.616 354.566 496.134 355.345 499.592 356.184C506.567 357.802 513.722 359.121 520.578 361.158C523.917 362.117 527.196 363.076 530.595 363.795C532.264 364.155 533.993 364.574 535.663 364.814C537.094 364.994 538.286 365.473 539.538 364.754C539.657 364.694 539.776 364.454 539.657 364.275C538.882 363.076 537.988 363.016 536.736 362.597ZM418.566 463.397C418.03 462.379 417.136 461.539 416.42 460.641C414.751 458.543 412.962 456.745 411.173 454.768C407.596 450.692 404.317 446.377 400.919 442.122C397.639 437.987 394.36 433.852 391.081 429.717C389.531 427.739 387.921 425.762 386.371 423.724C384.702 421.567 382.853 419.649 381.482 417.312C381.124 416.713 380.17 417.192 380.528 417.851C385.238 427.02 392.512 434.811 398.951 442.842C402.469 447.216 406.046 451.591 409.325 456.146C410.756 458.183 412.008 460.281 413.558 462.199C414.393 463.218 415.287 464.836 416.36 465.555C417.016 466.034 417.672 465.914 418.268 466.334C418.805 466.693 419.282 466.034 419.103 465.555C418.745 464.896 418.984 464.176 418.566 463.397ZM398.236 568.453C395.732 563.958 394.42 559.044 392.333 554.37C391.797 553.231 389.829 554.01 390.306 555.209C392.095 560.123 394.658 564.678 396.447 569.652C398.116 574.386 400.442 578.941 402.707 583.375C403.423 584.754 405.39 583.615 404.734 582.237C402.707 577.562 400.74 572.888 398.236 568.453ZM412.187 512.12C410.458 509.183 408.491 506.307 406.583 503.49C402.469 497.497 399.07 491.025 395.493 484.672C393.764 481.556 391.975 478.44 390.127 475.383C388.219 472.327 385.834 469.63 384.165 466.454C382.496 463.277 380.826 460.161 379.097 457.045C378.263 455.547 377.428 454.048 376.593 452.55C375.699 450.992 374.566 449.853 373.672 448.295C373.314 447.696 372.36 448.175 372.718 448.835C373.493 450.273 373.791 451.771 374.626 453.149C375.52 454.768 376.414 456.386 377.368 458.004C379.097 461 380.826 463.937 382.674 466.813C384.702 469.99 385.894 473.525 387.683 476.762C389.412 479.878 391.32 482.934 393.168 485.931C396.924 491.983 401.038 497.916 404.436 504.149C406.165 507.265 407.835 510.382 409.802 513.378C410.756 514.816 411.65 516.255 412.664 517.633C413.439 518.712 414.095 519.97 415.407 520.27C415.585 520.33 415.764 520.21 415.824 520.03C416.122 518.712 415.526 518.053 414.87 516.854C414.095 515.296 413.141 513.678 412.187 512.12ZM433.591 482.275C432.041 480.357 430.193 478.679 428.523 476.881C428.106 476.402 427.212 477.001 427.629 477.541C428.941 479.458 430.014 481.436 431.325 483.354C432.756 485.391 434.426 487.249 435.976 489.167C436.751 490.126 438.48 488.867 437.765 487.848C436.393 485.931 435.082 484.013 433.591 482.275ZM381.959 530.518C380.945 528.241 379.932 526.023 378.918 523.746C376.891 519.251 374.983 514.637 373.075 510.142C369.2 501.033 365.325 491.924 361.449 482.814C361.032 481.855 359.661 482.635 360.018 483.593C363.775 492.583 367.59 501.572 371.406 510.562C373.374 515.176 375.341 519.791 377.189 524.465C378.024 526.623 378.918 528.78 379.753 530.937C380.707 533.395 381.363 535.852 382.317 538.309C383.151 540.466 386.311 539.268 385.298 537.11C384.284 534.893 382.973 532.795 381.959 530.518ZM350.896 456.685C350.658 455.906 350.3 455.187 350.062 454.408C349.823 453.629 349.823 452.85 349.644 452.071C348.81 448.355 346.604 444.999 344.875 441.643C343.205 438.347 341.476 434.811 339.151 431.935C338.972 431.695 338.674 431.994 338.793 432.234C340.224 435.65 342.311 438.886 343.801 442.302C345.292 445.718 346.186 449.494 347.975 452.79C348.392 453.509 348.81 453.988 349.108 454.768C349.525 455.726 349.764 456.805 350.062 457.824C350.539 459.382 350.956 461.06 351.612 462.558C353.043 465.615 355.07 468.252 355.726 471.608C355.905 472.626 357.395 472.387 357.455 471.428C357.634 468.012 355.487 465.615 353.758 462.978C352.506 460.88 351.671 458.903 350.896 456.685ZM432.935 439.246C433.531 439.486 434.068 439.246 434.664 439.725C434.962 439.965 435.32 439.486 435.082 439.186C434.545 438.527 434.962 438.347 434.664 437.808C434.306 437.148 433.71 436.729 433.174 436.189C431.922 434.991 430.67 433.732 429.418 432.534C426.556 429.837 423.634 427.2 420.653 424.623C417.791 422.106 414.81 419.769 412.068 417.192C410.637 415.874 409.444 414.495 408.192 413.057C407.656 412.458 407.06 411.619 406.404 411.199C405.688 410.78 405.211 410.839 404.377 410.48C404.079 410.36 403.84 410.72 403.959 411.019C404.555 412.158 404.257 412.338 405.032 413.177C405.569 413.776 406.285 414.255 406.94 414.735C408.55 415.933 410.041 417.132 411.472 418.45C414.274 421.027 416.778 423.844 419.461 426.481C422.144 429.178 424.827 431.755 427.629 434.332C428.941 435.53 430.193 436.669 431.504 437.867C431.862 438.227 432.399 439.006 432.935 439.246ZM71.4515 346.356C83.3161 342.46 95.4788 339.584 107.582 336.527C113.544 335.029 119.506 333.351 125.409 331.493C131.132 329.635 137.273 328.077 142.639 325.381C143.474 324.961 142.937 323.643 142.043 323.882C136.141 325.5 130.417 327.898 124.455 329.456C118.493 331.074 112.531 332.632 106.568 334.25C94.6442 337.486 82.7199 340.662 71.0341 344.678C69.9013 344.977 70.3187 346.715 71.4515 346.356ZM55.473 259.219C57.9175 259.518 60.4215 259.339 62.866 259.458C63.5219 259.518 63.7007 258.44 63.0449 258.32C60.8389 257.9 58.6329 257.181 56.3673 256.822C53.9228 256.402 51.4187 256.282 48.9743 256.043C47.7222 255.923 47.3645 258.02 48.6165 258.26C50.8821 258.619 53.1478 258.919 55.473 259.219ZM28.6434 291.401C26.497 291.401 24.4103 291.281 22.3236 291.161C20.4753 291.101 18.3289 290.622 16.7192 291.64C16.1826 292 15.8845 292.899 16.4807 293.378C17.9116 294.637 19.6406 294.517 21.4292 294.517C23.6948 294.517 25.9605 294.217 28.2261 293.978C32.4592 293.558 36.6923 293.019 40.9254 292.659C45.2181 292.3 49.5109 292 53.8632 291.88C56.1884 291.82 58.454 291.76 60.7793 291.76C62.6275 291.76 64.7143 292.12 66.3241 291.101C66.7414 290.861 66.7414 290.262 66.3241 289.962C64.7143 288.944 62.6275 289.363 60.8389 289.363C58.8118 289.423 56.7847 289.483 54.8172 289.603C50.3456 289.843 45.874 290.142 41.462 290.502C37.05 290.921 32.8765 291.401 28.6434 291.401ZM44.2642 221.403C46.0528 222.003 47.8415 222.422 49.6301 222.902C52.9689 223.741 56.3673 224.4 59.7657 224.999C66.801 226.318 73.7171 228.475 80.6332 230.393C83.9719 231.292 87.3107 232.251 90.6495 233.03C94.2864 233.929 98.0426 234.168 101.679 235.247C104.959 236.266 108.238 237.285 111.577 238.244C113.246 238.723 114.915 239.143 116.585 239.622C118.314 240.101 119.983 240.101 121.712 240.581C122.428 240.761 122.726 239.742 122.01 239.502C120.46 239.023 119.148 238.184 117.598 237.764C115.81 237.285 114.021 236.745 112.173 236.266C108.834 235.367 105.495 234.588 102.097 233.809C98.5792 233.03 95.3 231.412 91.842 230.453C88.3839 229.434 84.8663 228.655 81.4082 227.816C74.4325 226.198 67.278 224.879 60.4215 222.842C57.0828 221.883 53.8036 220.924 50.4052 220.205C48.7358 219.845 47.0068 219.426 45.3374 219.186C43.9065 219.006 42.714 218.527 41.462 219.246C41.3427 219.306 41.2235 219.546 41.3427 219.725C42.1178 220.924 43.0121 220.984 44.2642 221.403ZM59.1099 347.434C51.2995 348.813 43.668 350.251 36.0365 352.468C34.7844 352.828 35.2614 354.866 36.573 354.506C44.1449 352.409 51.7168 350.071 59.408 348.393C59.9446 348.214 59.7061 347.315 59.1099 347.434ZM28.6434 392.321C23.7545 394.119 19.2233 396.696 14.2747 398.494C9.56461 400.172 5.09301 402.449 0.62142 404.787C-0.749869 405.506 0.382935 407.483 1.75422 406.824C6.34506 404.727 11.0551 402.749 15.4671 400.292C19.9387 397.775 24.8277 396.456 29.4781 394.359C30.6109 393.88 29.8358 391.902 28.6434 392.321ZM51.0014 186.045C53.3266 186.884 55.7115 187.424 57.9771 188.323C60.3023 189.222 62.5679 190.061 64.8931 190.96C69.484 192.697 74.0748 194.615 78.606 196.413C87.7877 200.069 96.9098 203.784 106.032 207.5C106.986 207.86 107.463 206.361 106.509 205.942C97.3867 202.226 88.2051 198.511 79.083 194.795C74.671 192.997 70.1994 191.199 65.7875 189.341C63.5219 188.383 61.2562 187.364 58.9906 186.405C56.5462 185.326 54.2806 184.008 51.8957 182.929C50.0474 182.09 49.0339 185.326 51.0014 186.045ZM52.0746 319.627C53.8036 319.388 56.0692 319.567 57.3212 318.189C57.5001 317.949 57.5001 317.59 57.2616 317.41C55.7711 316.571 54.1017 317.23 52.4323 317.47C50.1667 317.829 47.8415 318.189 45.5759 318.489C40.985 319.208 36.3942 319.867 31.8033 320.586C27.2125 321.305 22.6813 322.144 18.0904 322.864C13.44 323.583 8.78953 323.762 4.1987 324.422C2.5293 324.661 3.12551 327.298 4.85453 327.059C9.44537 326.279 13.917 325.141 18.5078 324.482C22.9794 323.822 27.451 323.343 31.9226 322.684C36.3942 322.025 40.8062 321.365 45.2777 320.646C47.4837 320.346 49.7493 319.987 52.0746 319.627ZM253.237 125.037C251.627 119.045 250.077 113.052 248.467 107.059C245.247 95.0729 242.088 83.0871 238.093 71.341C237.735 70.2623 236.006 70.6818 236.364 71.7605C240.239 83.6864 243.101 95.9119 246.142 108.078C247.632 114.07 249.302 120.063 251.15 125.996C252.998 131.75 254.548 137.922 257.231 143.316C257.649 144.155 258.96 143.616 258.722 142.717C257.231 136.784 254.846 131.03 253.237 125.037ZM100.666 363.316C101.62 362.896 100.845 361.518 99.8908 361.877C90.9476 365.653 82.0044 369.488 73.0613 373.324C68.4704 375.302 63.8796 377.279 59.2291 379.137C57.0828 379.976 54.9364 380.875 52.79 381.714C50.3456 382.673 47.9011 383.332 45.4566 384.291C43.3102 385.13 44.5027 388.306 46.649 387.287C48.9146 386.269 50.9418 384.95 53.2074 383.931C55.473 382.912 57.679 381.894 59.9446 380.875C64.4162 378.837 69.007 376.92 73.4786 375.002C82.541 371.106 91.6035 367.211 100.666 363.316ZM68.0531 153.923C66.9203 153.264 65.7875 155.062 66.9799 155.721C73.8363 159.617 80.812 163.332 87.43 167.587C87.9666 167.947 88.4435 167.108 87.9069 166.748C81.4082 162.194 74.9691 157.759 68.0531 153.923ZM112.113 359.3C115.512 359.48 117.896 357.323 120.52 355.585C122.428 354.326 124.455 353.427 126.601 352.648C127.376 352.409 128.092 352.049 128.867 351.809C129.642 351.57 130.417 351.57 131.192 351.39C134.889 350.551 138.227 348.333 141.566 346.595C144.845 344.917 148.363 343.18 151.225 340.842C151.463 340.662 151.165 340.363 150.927 340.483C147.528 341.921 144.309 344.019 140.91 345.517C137.512 347.015 133.756 347.914 130.477 349.712C129.761 350.131 129.284 350.551 128.509 350.85C127.555 351.27 126.482 351.51 125.468 351.809C123.918 352.289 122.249 352.708 120.758 353.367C117.718 354.806 115.094 356.843 111.755 357.503C110.921 357.742 111.159 359.24 112.113 359.3ZM169.111 354.626C162.434 357.922 155.875 361.158 149.436 364.934C148.065 365.713 149.257 367.87 150.629 367.091C157.008 363.316 163.209 359.36 169.648 355.585C170.244 355.225 169.767 354.326 169.111 354.626ZM98.1022 102.145C99.6523 103.703 101.381 105.081 103.051 106.459C106.33 109.216 109.669 111.793 112.948 114.55C116.346 117.367 119.685 120.303 122.845 123.359C124.574 124.978 126.243 126.656 127.972 128.334C129.284 129.652 130.596 131.57 132.504 131.989C132.981 132.109 133.398 131.75 133.279 131.21C132.921 129.412 131.192 128.274 129.94 127.015C128.211 125.337 126.482 123.779 124.753 122.161C121.354 119.105 117.956 116.108 114.438 113.172C111.278 110.535 108.178 107.898 105.197 104.961C103.647 103.403 102.276 101.725 100.785 100.167C99.5927 98.9084 98.6388 97.2304 96.7905 97.1704C96.1943 97.1105 95.8366 97.6499 95.777 98.1892C95.5385 99.8073 97.029 101.006 98.1022 102.145ZM63.82 113.771C67.5761 116.468 71.5707 118.865 75.2672 121.622C78.9041 124.318 82.3622 127.135 85.9991 129.832C89.636 132.529 93.2132 135.225 96.8501 137.862C98.6984 139.241 100.606 140.619 102.455 141.997C103.885 143.076 105.316 144.754 107.165 144.754C107.463 144.754 107.701 144.455 107.642 144.155C107.165 142.477 105.555 141.818 104.184 140.799C102.335 139.42 100.427 138.042 98.5792 136.664C94.823 133.907 91.1265 131.09 87.3704 128.334C83.6142 125.577 79.7985 122.94 76.0423 120.183C72.2862 117.367 68.8281 114.25 65.1316 111.434C63.82 110.415 62.389 112.752 63.82 113.771ZM121.116 415.694C120.102 416.533 118.493 417.432 117.777 418.51C117.3 419.17 117.419 419.829 117.002 420.428C116.644 420.967 117.3 421.447 117.777 421.267C118.552 420.908 119.208 421.207 119.983 420.788C120.997 420.248 121.831 419.349 122.726 418.63C124.813 416.952 126.601 415.154 128.569 413.357C132.623 409.761 136.916 406.465 141.149 403.049C145.263 399.753 149.376 396.456 153.49 393.16C155.458 391.602 157.425 389.984 159.452 388.426C161.599 386.748 163.507 384.89 165.832 383.512C166.428 383.152 165.951 382.193 165.295 382.553C156.173 387.287 148.423 394.599 140.433 401.071C136.081 404.607 131.729 408.203 127.197 411.499C125.17 412.877 123.083 414.136 121.116 415.694ZM204.884 476.941C201.187 486.11 197.491 495.34 193.794 504.509C192.006 508.943 190.217 513.438 188.369 517.873C187.415 520.15 186.401 522.427 185.447 524.705C184.374 527.162 183.062 529.439 181.989 531.836C181.155 533.754 184.374 534.773 185.09 532.795C185.924 530.458 186.461 528.061 187.355 525.784C188.25 523.446 189.084 521.169 189.979 518.832C191.708 514.217 193.615 509.603 195.404 505.048C199.041 495.819 202.738 486.65 206.434 477.481C206.792 476.402 205.242 475.982 204.884 476.941ZM222.472 395.977C221.101 397.895 220.147 400.172 219.014 402.21C217.822 404.307 216.45 406.225 215.496 408.442C215.258 408.922 215.318 409.341 215.616 409.761C215.735 409.881 215.795 410.06 216.033 410.06C216.152 410.06 216.272 410.06 216.391 410.06C216.748 410.06 217.166 409.881 217.345 409.521C218.418 407.424 219.074 405.206 219.968 403.049C220.922 400.771 222.174 398.494 222.889 396.097C222.889 395.917 222.591 395.797 222.472 395.977ZM207.925 420.069C204.824 425.402 202.499 431.155 199.399 436.549C196.298 441.943 193.198 447.276 190.098 452.61C183.957 463.337 177.697 474.125 172.271 485.211C171.794 486.23 173.285 487.189 173.762 486.17C179.426 474.964 185.924 464.296 192.363 453.569C195.523 448.235 198.564 442.842 201.366 437.328C204.109 431.935 207.388 426.481 209.296 420.728C209.654 419.829 208.402 419.23 207.925 420.069ZM228.196 169.984C224.917 163.272 221.697 156.68 217.941 150.208C217.166 148.829 215.019 150.028 215.795 151.406C219.551 157.819 223.486 164.051 227.242 170.524C227.6 171.123 228.494 170.644 228.196 169.984ZM248.765 422.586C246.38 429.657 243.995 436.609 242.147 443.86C241.73 445.359 244.055 446.078 244.472 444.58C246.38 437.388 247.93 430.137 249.779 422.945C249.958 422.166 248.944 421.926 248.765 422.586ZM223.545 436.789C224.618 433.133 226.049 429.298 226.467 425.522C226.467 425.222 226.109 425.222 226.049 425.462C224.618 429.058 223.784 432.833 222.413 436.429C221.101 439.785 219.372 443.021 218.179 446.437C217.464 448.475 216.748 450.273 215.735 452.191C215.019 453.629 214.185 455.007 213.648 456.505C212.635 459.502 212.158 462.558 210.429 465.195C209.832 466.034 211.084 466.933 211.8 466.274C214.185 464.176 214.483 461.18 215.019 458.243C215.377 456.326 215.854 454.468 216.689 452.73C217.166 451.771 217.643 450.752 218.06 449.793C218.537 448.715 219.133 448.055 219.73 447.097C221.578 443.98 222.472 440.325 223.545 436.789ZM238.272 461.3C237.795 462.858 236.96 464.176 236.543 465.735C236.066 467.532 235.529 469.33 235.052 471.188C234.158 474.544 233.383 477.9 232.608 481.316C231.833 484.852 230.223 488.148 229.269 491.624C228.255 495.1 227.48 498.636 226.646 502.112C225.036 509.123 223.724 516.315 221.697 523.207C220.743 526.563 219.789 529.859 219.074 533.275C218.716 534.953 218.299 536.691 218.06 538.369C217.881 539.807 217.404 541.006 218.12 542.264C218.179 542.384 218.418 542.504 218.597 542.384C219.73 541.665 219.789 540.766 220.147 539.447C220.743 537.649 221.16 535.852 221.637 534.054C222.472 530.698 223.128 527.282 223.724 523.866C225.036 516.794 227.182 509.842 229.09 502.891C229.984 499.535 230.938 496.179 231.713 492.822C232.608 489.167 232.846 485.391 233.919 481.736C234.933 478.44 235.947 475.143 236.9 471.787C237.377 470.109 237.795 468.431 238.272 466.753C238.749 465.015 238.749 463.337 239.226 461.599C239.524 460.94 238.51 460.641 238.272 461.3ZM166.011 414.136C167.322 412.697 168.694 411.499 170.125 410.24C170.721 409.701 171.556 409.102 171.973 408.442C172.39 407.723 172.331 407.244 172.688 406.405C172.808 406.105 172.45 405.865 172.152 405.985C171.019 406.585 170.84 406.285 170.005 407.064C169.409 407.603 168.932 408.322 168.455 408.982C167.263 410.6 166.07 412.098 164.759 413.536C162.195 416.353 159.393 418.87 156.769 421.567C154.087 424.264 151.463 426.96 148.959 429.777C147.767 431.095 146.634 432.354 145.441 433.672C145.024 434.092 144.309 434.691 144.07 435.231C143.832 435.83 144.07 436.369 143.593 436.969C143.355 437.268 143.832 437.628 144.13 437.388C144.786 436.849 144.964 437.268 145.501 436.969C146.157 436.609 146.574 436.01 147.111 435.47C148.303 434.212 149.555 432.953 150.748 431.695C153.431 428.818 156.054 425.882 158.618 422.885C161.062 419.949 163.387 416.952 166.011 414.136ZM143.474 475.803C141.805 476.282 141.149 477.9 140.135 479.279C138.764 481.136 137.393 483.054 136.021 484.912C133.279 488.687 130.477 492.403 127.734 496.179C124.991 499.954 122.368 503.79 119.625 507.565C116.823 511.341 113.723 514.817 110.921 518.532C109.907 519.91 112.173 521.349 113.186 519.91C115.869 516.135 118.254 512.12 120.997 508.404C123.68 504.748 126.482 501.273 129.165 497.617C131.848 493.961 134.531 490.365 137.154 486.71C138.525 484.852 139.897 482.934 141.268 481.076C142.341 479.638 144.011 478.2 144.011 476.342C144.07 475.982 143.772 475.743 143.474 475.803ZM122.726 460.521C124.336 458.783 126.005 457.105 127.674 455.367C128.986 454.048 130.894 452.73 131.311 450.812C131.43 450.333 131.073 449.913 130.536 450.033C128.748 450.393 127.615 452.131 126.363 453.389C124.693 455.127 123.143 456.865 121.533 458.603C118.493 462.019 115.512 465.435 112.59 468.971C109.967 472.147 107.343 475.263 104.422 478.26C102.872 479.818 101.202 481.196 99.6523 482.694C98.4003 483.893 96.7309 484.852 96.6713 486.71C96.6117 487.309 97.1482 487.669 97.6848 487.729C99.4139 487.908 100.606 486.47 101.739 485.331C103.289 483.773 104.661 482.035 106.032 480.357C108.774 477.061 111.338 473.705 114.081 470.409C116.823 467.053 119.745 463.697 122.726 460.521ZM106.628 430.736C107.105 430.316 106.509 429.418 105.972 429.837C104.064 431.155 102.097 432.234 100.189 433.553C98.1618 434.991 96.3135 436.669 94.4057 438.227C93.4517 439.006 94.7038 440.744 95.7173 440.025C97.5656 438.647 99.4735 437.328 101.202 435.83C103.11 434.272 104.78 432.414 106.628 430.736ZM175.908 549.036C173.702 553.77 172.331 558.864 170.065 563.599C167.919 568.153 166.369 572.948 164.818 577.802C164.341 579.24 166.547 579.9 167.084 578.461C168.873 573.727 170.781 568.992 172.152 564.078C173.583 559.164 176.087 554.729 177.875 549.935C178.412 548.736 176.504 547.897 175.908 549.036ZM165.892 495.639C161.36 502.171 156.948 508.584 153.133 515.596C152.477 516.734 154.265 517.813 154.921 516.674C158.797 509.782 162.493 502.771 166.726 496.119C167.024 495.639 166.249 495.16 165.892 495.639ZM108.059 392.142C111.1 390.224 113.783 387.827 116.943 386.149C120.102 384.471 123.203 382.793 126.303 381.055C127.794 380.216 129.284 379.377 130.775 378.538C132.325 377.639 133.458 376.5 135.008 375.601C135.604 375.242 135.127 374.283 134.471 374.642C133.04 375.421 131.55 375.721 130.178 376.56C128.569 377.459 126.959 378.358 125.349 379.317C122.368 381.055 119.447 382.793 116.585 384.65C113.425 386.688 109.907 387.887 106.688 389.684C103.587 391.422 100.547 393.34 97.5656 395.198C91.5439 398.974 85.6413 403.109 79.4407 406.525C76.3404 408.263 73.2401 409.941 70.2591 411.918C68.8281 412.877 67.3972 413.776 66.0259 414.795C64.9528 415.574 63.7007 416.233 63.4026 417.552C63.343 417.731 63.4622 417.911 63.6411 417.971C64.9528 418.271 65.6086 417.671 66.801 417.012C68.4108 416.173 70.0206 415.214 71.6303 414.255C74.5518 412.517 77.4136 410.54 80.2158 408.622C86.1779 404.487 92.617 401.071 98.9369 397.475C101.918 395.797 105.018 394.059 108.059 392.142Z" fill="#1A0F0F"/>
</svg>
