<svg viewBox="0 0 24 24" fill="none" xmlns="http://www.w3.org/2000/svg">
<g clip-path="url(#clip0_117_2522)">
<path d="M21.6054 2.38449C21.4793 2.25028 18.4719 -0.88993 14.2448 0.247931C12.3739 0.751442 11.0773 2.0496 10.2852 3.96885C9.87026 4.97423 8.65026 5.1347 7.28408 5.15948C6.90378 5.16641 6.5292 5.2379 6.25097 4.97847C5.97275 4.71905 5.87388 4.32012 5.99831 3.96071C6.24941 3.2352 6.5701 2.69799 6.79556 2.37436C6.94243 2.16354 6.91132 1.8763 6.72208 1.7024L6.18252 1.20652L5.77138 0.823273C5.65553 0.715309 5.49644 0.666787 5.34005 0.691655C5.18365 0.716523 5.04752 0.812095 4.97075 0.950645C4.57052 1.67364 3.92396 2.89104 3.64383 3.42817C3.13971 4.39473 2.49851 5.93689 2.29342 7.57479C1.92759 10.4964 1.97603 12.2422 2.67865 14.0923C5.19266 20.7114 10.4641 25.0834 14.3798 23.7655C18.2954 22.4476 18.9976 14.0347 17.1919 8.66967C16.6662 7.10776 15.2954 6.22343 13.4305 5.6785C13.1345 5.59203 12.8942 5.37523 12.7773 5.0899C12.6605 4.80448 12.6795 4.48094 12.8301 4.21173C13.2495 3.46196 13.8918 2.83654 14.8705 2.57313C17.6842 1.81565 19.7664 3.94572 19.8494 4.03228C20.3044 4.51707 21.0663 4.54142 21.5513 4.08635C22.0362 3.63127 22.0604 2.86938 21.6054 2.38449ZM7.27359 17.5376C7.16277 17.6383 7.02361 17.6881 6.88472 17.6881C6.72762 17.6881 6.57123 17.6245 6.45711 17.4992C4.08504 14.8932 3.47945 10.7833 3.45493 10.6095C3.41014 10.2936 3.62996 10.0011 3.94605 9.95631C4.26119 9.91091 4.55424 10.1312 4.59929 10.447C4.60484 10.4861 5.18287 14.3823 7.31198 16.7212C7.52678 16.9572 7.50954 17.3227 7.27359 17.5376ZM8.32931 19.4539C7.99242 19.4539 7.71931 19.1808 7.71931 18.8439C7.71931 18.507 7.99242 18.2339 8.32931 18.2339C8.6662 18.2339 8.93931 18.507 8.93931 18.8439C8.93931 19.1808 8.6662 19.4539 8.32931 19.4539Z" fill="#DD2F2F"/>
</g>
<defs>
<clipPath id="clip0_117_2522">
<rect width="24" height="24" fill="white"/>
</clipPath>
</defs>
</svg>
